PathFileType	4	(X/Y/Z)	/Users/itak/Documents/Research/Walk-IL/dataset/trc/00224_00009.trc
DataRate	CameraRate	NumFrames	NumMarkers	Units	OrigDataRate	OrigDataStartFrame	OrigNumFrames
100.000000	100.000000	4	53	mm	100.000000	66	530
Frame#	Time	RPSI			LPSI			L3			STRN			T10			C7			CLAV			RBAK			LBAK			LSHO			LUPA			LAEL			LAOL			LWTS			LWPS			LFRA			LIFD			LHPS			LHTS			RSHO			RUPA			RAEL			RAOL			RWTS			RWPS			RFRA			RIFD			RHTS			RHPS			RBHD			LFHD			RFHD			LBHD			LHIP			RHIP			RASI			LASI			LKNE			LTHI			LANK			LTIP			LTOE			LMT1			LMT5			LHEE			RKNE			RANK			RTIP			RTOE			RMT1			RMT5			RHEE			RTHI			
		X1	Y1	Z1	X2	Y2	Z2	X3	Y3	Z3	X4	Y4	Z4	X5	Y5	Z5	X6	Y6	Z6	X7	Y7	Z7	X8	Y8	Z8	X9	Y9	Z9	X10	Y10	Z10	X11	Y11	Z11	X12	Y12	Z12	X13	Y13	Z13	X14	Y14	Z14	X15	Y15	Z15	X16	Y16	Z16	X17	Y17	Z17	X18	Y18	Z18	X19	Y19	Z19	X20	Y20	Z20	X21	Y21	Z21	X22	Y22	Z22	X23	Y23	Z23	X24	Y24	Z24	X25	Y25	Z25	X26	Y26	Z26	X27	Y27	Z27	X28	Y28	Z28	X29	Y29	Z29	X30	Y30	Z30	X31	Y31	Z31	X32	Y32	Z32	X33	Y33	Z33	X34	Y34	Z34	X35	Y35	Z35	X36	Y36	Z36	X37	Y37	Z37	X38	Y38	Z38	X39	Y39	Z39	X40	Y40	Z40	X41	Y41	Z41	X42	Y42	Z42	X43	Y43	Z43	X44	Y44	Z44	X45	Y45	Z45	X46	Y46	Z46	X47	Y47	Z47	X48	Y48	Z48	X49	Y49	Z49	X50	Y50	Z50	X51	Y51	Z51	X52	Y52	Z52	X53	Y53	Z53	

67	0.66	-1238.646240234375	1054.16552734375	-106.7515869140625	-1245.071655273438	1060.146362304688	13.8237943649292	-1237.478515625	1135.885986328125	-30.16122055053711	-1480.783935546875	1327.469482421875	-31.86666297912598	-1226.219970703125	1261.6591796875	-37.91861343383789	-1283.070922851562	1524.306640625	-34.83720016479492	-1451.34716796875	1444.643188476562	-33.11958694458008	-1209.393676757812	1385.659912109375	-110.1371994018555	-1264.169677734375	1486.726196289062	76.30891418457031	-1353.728149414062	1491.1435546875	133.3372039794922	-1328.136352539062	1372.051147460938	213.5298156738281	-1353.707275390625	1161.144653320312	236.8408660888672	-1278.65625	1144.083129882812	194.5220489501953	-1439.679565429688	926.5587768554688	172.1950988769531	-1420.38623046875	909.4832763671875	252.9137878417969	-1378.846313476562	1053.938720703125	248.5216064453125	-1443.664672851562	730.1906127929688	180.833740234375	-1435.355590820312	821.1043701171875	247.2834167480469	-1473.939331054688	824.1200561523438	191.9677581787109	-1343.731689453125	1486.589233398438	-203.1199645996094	-1326.021484375	1422.51220703125	-271.8034973144531	-1316.33544921875	1140.4931640625	-310.8585815429688	-1274.828491210938	1132.250366210938	-225.0674438476562	-1450.352905273438	927.1133422851562	-260.5870361328125	-1402.53369140625	912.9108276367188	-328.232177734375	-1344.60009765625	1072.671752929688	-321.6256408691406	-1464.33447265625	734.7535400390625	-253.2958679199219	-1491.201171875	806.6227416992188	-273.18603515625	-1442.316040039062	805.7753295898438	-326.9103393554688	-1302.662963867188	1666.544555664062	-84.9427490234375	-1495.528076171875	1746.144653320312	7.975757122039795	-1494.600463867188	1742.833618164062	-92.27352142333984	-1347.284790039062	1684.40234375	47.38300323486328	-1349.6611328125	995.2703857421875	148.8649597167969	-1333.146850585938	1012.334838867188	-215.1706237792969	-1430.00439453125	1055.414794921875	-184.0947113037109	-1450.379638671875	1035.9208984375	97.31875610351562	-1370.022094726562	509.9947204589844	103.1435852050781	-1374.544311523438	653.2688598632812	136.1976928710938	-1292.458374023438	40.44464492797852	90.10546875	-1321.905395507812	288.6026306152344	108.5619430541992	-1507.189208984375	46.29360198974609	34.44876098632812	-1438.074584960938	41.64052200317383	-8.419035911560059	-1420.168090820312	40.3123893737793	106.8130416870117	-1229.99755859375	47.8624153137207	38.33379745483398	-1358.523193359375	518.77490234375	-171.0956420898438	-1279.327514648438	40.68945693969727	-133.0959014892578	-1360.934814453125	403.2563171386719	-151.1219787597656	-1493.314819335938	46.19123077392578	-101.4665451049805	-1439.087646484375	44.47555923461914	-55.98737335205078	-1387.307983398438	39.87983703613281	-165.1063079833984	-1220.82177734375	41.92098999023438	-70.03779602050781	nan	nan	nan	
68	0.67	-1238.593994140625	1054.204345703125	-106.9427719116211	-1245.07568359375	1060.1787109375	13.60201740264893	-1237.585815429688	1135.922607421875	-30.39575004577637	-1480.784057617188	1327.455688476562	-32.02981567382812	-1226.215454101562	1261.683349609375	-38.12289047241211	-1283.10791015625	1524.326171875	-35.03872680664062	-1451.39501953125	1444.639892578125	-33.24918746948242	-1209.505126953125	1385.6435546875	-110.3900375366211	-1264.180419921875	1486.717041015625	76.13325500488281	-1353.730346679688	1491.13330078125	133.1914215087891	-1328.093872070312	1372.032836914062	213.2870483398438	-1353.719116210938	1161.166625976562	236.6405334472656	-1278.633911132812	1144.098754882812	194.3430633544922	-1439.598388671875	926.483154296875	172.1339111328125	-1420.293823242188	909.4703979492188	252.8641204833984	-1378.758056640625	1053.949340820312	248.4132843017578	-1443.42919921875	730.0574340820312	180.8754425048828	-1435.201782226562	821.1012573242188	247.2887268066406	-1473.723266601562	823.9991455078125	192.028564453125	-1343.772216796875	1486.59619140625	-203.2859954833984	-1326.104736328125	1422.516235351562	-272.0055847167969	-1316.408569335938	1140.496337890625	-311.0663757324219	-1274.880004882812	1132.236694335938	-225.2949829101562	-1450.466430664062	927.14501953125	-260.7505798339844	-1402.621337890625	912.9278564453125	-328.3913269042969	-1344.810913085938	1072.67919921875	-321.8849792480469	-1464.497924804688	734.788330078125	-253.4694213867188	-1491.371337890625	806.6602172851562	-273.369873046875	-1442.506958007812	805.801513671875	-327.1109924316406	-1302.70751953125	1666.55224609375	-85.07720947265625	-1495.6279296875	1746.099975585938	7.857578277587891	-1494.780395507812	1742.819213867188	-92.44839477539062	-1347.435180664062	1684.422241210938	47.2027702331543	-1349.578369140625	995.2763671875	148.6660003662109	-1333.278198242188	1012.334411621094	-215.3954315185547	-1430.037231445312	1055.400268554688	-184.2244262695312	-1450.3701171875	1035.890747070312	97.16934967041016	-1370.00048828125	509.9962158203125	103.0182495117188	-1374.482055664062	653.27783203125	136.04931640625	-1292.472045898438	40.43376541137695	90.11415100097656	-1321.90185546875	288.6141967773438	108.5239562988281	-1507.193603515625	46.28890228271484	34.45520401000977	-1438.084106445312	41.64363479614258	-8.411741256713867	-1420.165283203125	40.31000900268555	106.8131713867188	-1230.0078125	47.87374877929688	38.33722305297852	-1358.514282226562	518.75341796875	-171.1817779541016	-1279.324829101562	40.6878662109375	-133.0960540771484	-1360.93505859375	403.2471008300781	-151.1976623535156	-1493.315307617188	46.18883895874023	-101.4665222167969	-1439.110961914062	44.4836540222168	-56.00210189819336	-1387.310668945312	39.87591934204102	-165.1120452880859	-1220.822631835938	41.92532730102539	-70.03984069824219	nan	nan	nan	
69	0.68	-1238.55126953125	1054.2353515625	-107.1251983642578	-1245.085327148438	1060.205932617188	13.38164615631104	-1237.6708984375	1135.963134765625	-30.65122413635254	-1480.773803710938	1327.4404296875	-32.20261764526367	-1226.197021484375	1261.705688476562	-38.31609725952148	-1283.147583007812	1524.341918945312	-35.24139022827148	-1451.447631835938	1444.647094726562	-33.38211441040039	-1209.60986328125	1385.634155273438	-110.6665496826172	-1264.18408203125	1486.7060546875	75.94583129882812	-1353.726196289062	1491.12841796875	133.0348052978516	-1328.045043945312	1372.016845703125	213.0373992919922	-1353.749755859375	1161.179321289062	236.4295501708984	-1278.620239257812	1144.1005859375	194.1562652587891	-1439.54541015625	926.4217529296875	172.0234375	-1420.2275390625	909.451171875	252.7891387939453	-1378.687866210938	1053.9638671875	248.2819519042969	-1443.2763671875	729.97705078125	180.8266296386719	-1435.119262695312	821.0963134765625	247.271240234375	-1473.59765625	823.9302368164062	192.0182800292969	-1343.804809570312	1486.600952148438	-203.4501647949219	-1326.175415039062	1422.51904296875	-272.2009582519531	-1316.473266601562	1140.494995117188	-311.2677307128906	-1274.952758789062	1132.211059570312	-225.5373077392578	-1450.592041015625	927.17529296875	-260.9107971191406	-1402.717651367188	912.9427490234375	-328.5432739257812	-1345.016479492188	1072.678588867188	-322.1437683105469	-1464.691772460938	734.8267211914062	-253.6428680419922	-1491.5546875	806.6987915039062	-273.5426025390625	-1442.719360351562	805.827392578125	-327.2989196777344	-1302.74658203125	1666.551635742188	-85.21775054931641	-1495.721557617188	1746.051391601562	7.724710464477539	-1494.958862304688	1742.803344726562	-92.6209716796875	-1347.563842773438	1684.435668945312	47.0141487121582	-1349.528442382812	995.2755126953125	148.4709777832031	-1333.43994140625	1012.331115722656	-215.6332397460938	-1430.06005859375	1055.38427734375	-184.3512878417969	-1450.358032226562	1035.863403320312	97.00157928466797	-1369.978515625	509.9954833984375	102.8906631469727	-1374.431274414062	653.2835693359375	135.9053955078125	-1292.482421875	40.42776107788086	90.11826324462891	-1321.895874023438	288.6255493164062	108.4836349487305	-1507.19775390625	46.28535461425781	34.45913696289062	-1438.094482421875	41.64708709716797	-8.403636932373047	-1420.16259765625	40.30743026733398	106.8133316040039	-1230.020263671875	47.89030075073242	38.34414291381836	-1358.496459960938	518.7286376953125	-171.2613677978516	-1279.322143554688	40.68576812744141	-133.0966491699219	-1360.930786132812	403.2375793457031	-151.2713623046875	-1493.317504882812	46.18719863891602	-101.4639053344727	-1439.138671875	44.49478912353516	-56.01884460449219	-1387.312744140625	39.87299728393555	-165.1172332763672	-1220.823608398438	41.92984008789062	-70.04345703125	nan	nan	nan	
70	0.6900000000000001	-1238.529541015625	1054.258422851562	-107.303466796875	-1245.100952148438	1060.229370117188	13.16463184356689	-1237.728515625	1136.004760742188	-30.92520523071289	-1480.754760742188	1327.42529296875	-32.38379287719727	-1226.171020507812	1261.725463867188	-38.50098037719727	-1283.190307617188	1524.353881835938	-35.44440460205078	-1451.5	1444.664672851562	-33.52130508422852	-1209.70361328125	1385.631958007812	-110.9598617553711	-1264.18017578125	1486.692749023438	75.74569702148438	-1353.71337890625	1491.12890625	132.8647766113281	-1327.9921875	1372.004028320312	212.7840270996094	-1353.791870117188	1161.185302734375	236.2094879150391	-1278.610229492188	1144.089721679688	193.9576721191406	-1439.521850585938	926.3759155273438	171.8705139160156	-1420.184204101562	909.4298095703125	252.692138671875	-1378.638671875	1053.981079101562	248.1270446777344	-1443.218505859375	729.96142578125	180.6790618896484	-1435.11083984375	821.0948486328125	247.2374114990234	-1473.565551757812	823.9190673828125	191.9339599609375	-1343.829345703125	1486.605102539062	-203.6135406494141	-1326.23828125	1422.521362304688	-272.3903198242188	-1316.537841796875	1140.48974609375	-311.4645080566406	-1275.055541992188	1132.173828125	-225.7930297851562	-1450.733154296875	927.2039184570312	-261.0702209472656	-1402.827514648438	912.9555053710938	-328.6907348632812	-1345.210571289062	1072.67041015625	-322.3971557617188	-1464.913696289062	734.867919921875	-253.8173522949219	-1491.744384765625	806.7362670898438	-273.701416015625	-1442.947998046875	805.8528442382812	-327.4738159179688	-1302.783081054688	1666.546997070312	-85.37032318115234	-1495.805786132812	1745.999267578125	7.574460029602051	-1495.12939453125	1742.783813476562	-92.78865814208984	-1347.668334960938	1684.442504882812	46.81706619262695	-1349.514282226562	995.267822265625	148.2826385498047	-1333.627685546875	1012.325500488281	-215.8797607421875	-1430.076049804688	1055.366821289062	-184.47802734375	-1450.344360351562	1035.84130859375	96.81709289550781	-1369.955688476562	509.9928894042969	102.7625274658203	-1374.392456054688	653.2880249023438	135.7699432373047	-1292.489379882812	40.42700576782227	90.11803436279297	-1321.885498046875	288.6376037597656	108.4418640136719	-1507.202026367188	46.2827033996582	34.46082305908203	-1438.104614257812	41.650634765625	-8.395717620849609	-1420.159912109375	40.30484771728516	106.8142929077148	-1230.032958984375	47.91123199462891	38.3527946472168	-1358.46337890625	518.698486328125	-171.3313598632812	-1279.3193359375	40.68283843994141	-133.0978851318359	-1360.924926757812	403.228271484375	-151.3446197509766	-1493.320434570312	46.18601989746094	-101.4599380493164	-1439.165649414062	44.50665283203125	-56.03574371337891	-1387.313842773438	39.87065124511719	-165.1227264404297	-1220.824584960938	41.9344367980957	-70.04805755615234	nan	nan	nan	
